<?xml version="1.0" standalone="no"?>
<!DOCTYPE svg PUBLIC "-//W3C//DTD SVG 20010904//EN"
 "http://www.w3.org/TR/2001/REC-SVG-20010904/DTD/svg10.dtd">
<svg version="1.0" xmlns="http://www.w3.org/2000/svg"
 width="700.000000pt" height="700.000000pt" viewBox="0 0 700.000000 700.000000"
 preserveAspectRatio="xMidYMid meet">
<metadata>
Created by potrace 1.14, written by Peter Selinger 2001-2017
</metadata>
<g transform="translate(0.000000,700.000000) scale(0.100000,-0.100000)"
fill="#000000" stroke="none">
<path d="M4419 6996 c-2 -2 -35 -6 -74 -10 -63 -5 -111 -12 -215 -31 -112 -20
-315 -81 -450 -135 -85 -33 -267 -128 -343 -176 -37 -24 -70 -44 -72 -44 -2 0
-42 -28 -87 -62 -266 -198 -486 -437 -640 -693 -121 -202 -207 -404 -274 -647
-20 -72 -54 -259 -60 -334 -3 -44 -8 -82 -10 -86 -6 -9 -4 -319 1 -383 5 -48
30 -234 40 -285 2 -14 14 -59 25 -100 11 -41 26 -98 32 -125 l11 -51 -1122
-1122 c-989 -989 -1125 -1128 -1149 -1179 l-27 -58 0 -615 0 -615 28 -56 c32
-66 99 -132 165 -162 47 -22 51 -22 862 -25 826 -3 878 -2 948 33 57 29 111
86 144 153 l33 67 2 295 c1 162 2 302 3 310 0 13 41 15 308 16 307 1 307 1
363 26 104 47 178 140 195 243 3 22 7 167 7 323 l0 282 268 0 c291 0 343 6
411 49 25 16 118 111 208 212 90 101 170 192 179 201 15 15 24 15 136 -1 161
-24 558 -22 691 4 16 3 45 8 64 11 72 11 243 55 333 85 617 207 1120 649 1405
1234 24 50 53 113 63 140 11 28 24 59 29 70 8 19 45 137 69 220 17 61 41 172
47 218 3 23 7 48 10 55 25 77 24 637 -2 705 -2 7 -6 26 -8 42 -8 64 -39 195
-72 302 -144 476 -428 889 -824 1199 -253 198 -562 349 -880 429 -116 29 -144
35 -320 60 -41 6 -446 16 -451 11z m989 -1110 c223 -58 392 -217 468 -441 24
-70 36 -247 21 -305 -2 -8 -7 -33 -12 -55 -4 -22 -24 -75 -45 -117 -139 -280
-428 -422 -729 -356 -215 46 -393 198 -472 403 -67 173 -57 360 29 535 65 133
214 263 367 321 98 37 263 43 373 15z"/>
</g>
</svg>
